<?xml version="1.0" encoding="UTF-8" standalone="no"?>
<svg width="33px" height="33px" viewBox="0 0 33 33" version="1.1" xmlns="http://www.w3.org/2000/svg" xmlns:xlink="http://www.w3.org/1999/xlink" xmlns:sketch="http://www.bohemiancoding.com/sketch/ns">
    <!-- Generator: Sketch 3.3.3 (12072) - http://www.bohemiancoding.com/sketch -->
    <title>github-icon</title>
    <desc>Created with Sketch.</desc>
    <defs></defs>
    <g id="Page-1" stroke="none" stroke-width="1" fill="none" fill-rule="evenodd" sketch:type="MSPage">
        <g id="github-icon" sketch:type="MSArtboardGroup" fill="#161614">
            <path d="M16.498,0 C7.388,0 0,7.345 0,16.405 C0,23.653 4.727,29.802 11.284,31.971 C12.109,32.131 12.41,31.621 12.41,31.181 C12.41,30.801 12.396,29.761 12.388,28.391 C7.798,29.391 6.83,26.191 6.83,26.191 C6.08,24.301 4.998,23.791 4.998,23.791 C3.5,22.781 5.111,22.801 5.111,22.801 C6.771,22.921 7.641,24.491 7.641,24.491 C9.111,27.001 11.501,26.281 12.441,25.861 C12.591,24.801 13.021,24.081 13.491,23.671 C9.831,23.261 5.981,21.851 5.981,15.569 C5.981,13.779 6.631,12.312 7.681,11.166 C7.511,10.75 6.941,9.082 7.841,6.826 C7.841,6.826 9.231,6.383 12.381,8.506 C13.701,8.141 15.111,7.96 16.511,7.953 C17.921,7.96 19.331,8.141 20.641,8.506 C23.791,6.378 25.171,6.818 25.171,6.818 C26.071,9.078 25.511,10.745 25.341,11.158 C26.399,12.306 27.037,13.772 27.037,15.562 C27.037,21.862 23.177,23.252 19.504,23.657 C20.094,24.165 20.624,25.167 20.624,26.697 C20.624,28.887 20.604,30.657 20.604,31.197 C20.604,31.637 20.902,32.147 21.739,31.987 C28.28,29.795 33,23.65 33,16.405 C33,7.344 25.612,0 16.498,0" id="Shape" sketch:type="MSShapeGroup"></path>
        </g>
    </g>
</svg>